<?xml version="1.0" encoding="UTF-8"?>
<svg version="1.1" viewBox="0 0 900 900" width="225" height="225" xmlns="http://www.w3.org/2000/svg">
<path transform="translate(0)" d="m0 0h900v900h-900z" fill="#E5173C"/>
<path transform="translate(473,209)" d="m0 0h2l2 2 4-1 4 2 2 2 4 1 4 4 7 2 7-1-1 7h3l1-2h3l8-1 5 2 5-1 2 1 1 3 3 1 2 2h3l2-4 1 2 7 2 1 5-4-1v3l4-1 4 1 3-1v2l4-1 3 3v2h2l1-4h3l1 5 4-1 3 1v4h4l1 4 6-1 5 7v2l4 2 1 3 8 1 4 4 4 1 3 3 2 4 3 2v3h3l5 5 5 6 3 1 3 5v3l6 1 2 2v4l7-1-2 4 1 3v-2h2l2 7h2l2 7 2 1 3 10 1 5 4-1 1 1v6l-1 2 4-1 1 7 4 2 7-1 4 2 4 1v3h2l2 6 4 4 1 5-2 5-2 3-5 3h2l2 2 3-2h3l-1-3 3-3 1 4v2 1l1 3-5 6-1 6h-3l1 3h-2l1 6-7-2 5 5v8l-5 2v-2h2l-2-7h-3v8l-1 4 1 12v48h-2l-1 12 3-3 7-1 1 6h-2l-1 5h-5l-1-3-2 3-1-3-2 6-5 17 5-1 2-1-3-5h2l1-2 1 3h3l3 11h-2l1 6-2 7-3-1-1 5-2 3-3 2h-1l-4 2-1 7-3 2 3 1-3 2-1 3h-3l-1 2 4 2-5-1h-2l-1 9-3 5-1 2-3 1v3l-4 1 1 4-4-1-1 2 3 1 1 3h-2v2l2 1h-4v5l-4-1v2l3 1-4 2h-3l-3 3-3-1 3 3-1 2-6 1-6 3-3 4-2 4-3 1-1 4 3 1v6l-1 2v5l-2 1-3-1 2 9 2 1v-6l2-2 3-9 2-7 2-3 2 1-2 11-1 7-2 3-1 5-1 8h-3l2 2v3h2v4h-2l-2 6h-2v2l-3-1v-7l-2-1-6 2-6-1-6-4-10-9-8-7-3-2v-2l-4-2-12-11-8-7-5-4-6-1-1 3-27 9-13 3-24 3h-28l-25-4-19-5-12-4-10-4v2l6 1 11 5 11 3 25 5 15 2h30l13-2h7l-3 3h-7l-8 4h-2v2h-2v2l4-1 5 2 1 3h-19l-3-2-2 2-10 1-6-1v-2l-9-3-8-3-5 2-2-2-3 1v-2h-6l-2-1 1 5 6 1v1h-8l-10-4-9-3-4-3-7-1-1-2 1-3 1-1-6-2v4h-6v-2l-6-1-3-1v-2h-4l16 8 11 5 21 7 25 5 7 1 18 1h13l19-1 23-4 17-5 20-7 9-3 8 7 4 3-1 3-20 9-20 7-24 6-28 3h-29l-23-3-26-6-20-7-19-8-19-11-14-10-11-9-3-2-5-1-1-3h-3v-3l-5-1-1-3-6-3-6-7-2-3-3-2-1 1h-2v3l-2-1-3 1h-2l-1 2-7 4-10 6-4 2-7 5-7 3-3 3-7 3-15 8-11 2-5-3-2-2v-7l4-8 14-19 13-18 16-23 7-10 3-2 4 7v2l2-1-2-4 1-4 5 2 11 2-3-2-16-3-3-3 3-1 1-3 5-5 11-16 10-14 12-17 13-18 13-19 9-12 4-5-2-6-9-10-15-20-13-17-10-13-9-11-12-16-6-10-2-1 1-5h10v-3l-2-1h2l1-2h9v-2l-2-2 1-2-1-3 1-3-2-2 3-3 5-1 3-4h-2v-2h2l1-5 3-3h4v-2h2l3-3 2-1 1-5 5-3 5 1v-2h-2l1-3h2l3-4h2l1-3 8-4h3l1-2 5-2 6-8 5-2 4 1 3-3h2l2-4 3-3h3v2 1l1-4 4-2 2 4 5-1 3-3h-5v-1h8 2l12-3 11-3 4-2v-4l-4 2-1 2-3-3v-2l8-2 6 1v-2l3-1 1-2 16-2 3-3h2v-3h2l1 2h2l1 2h3l1 3 6 2 2-5 4-5 6-1 2 1-1-3h4z" fill="#FEFEFD"/>
<path transform="translate(16,375)" d="m0 0 3 1v2h2l1 8-1 2 2 1h-5l-1 7 6-1 1 5h-2v2l3 1h-2l2 14 5 2v-3h2l-1-3h3v6h-3l2 1v3h2v5l5 2-1 5 5 2v6l5-1 4 4v2l4 1 1 1 1-3 4 3 1 6h3l1-2v3l1-2h2l2 5 2 2h7l-1 3 7 1v2l2 1h-2l-2 4-1 4h-4v-2h-2l-1 6h4v2l-2 1 2 2 4-1 6 4-4 1 1 4 3 3h-3l2 1v2l-2 1 2 2 1 6 4-1 5 6 7 3v2l7 1 2-4 3-2 1 4-1 4 3-1-1 6h2l2 4 1 5-2 2-1 13 2 5-2 4v4l4-1 3 1-2 7 4 4 3-2 7 2h3l1-2h4l6 2 6 1v-4l6 1 3 2v3l5-1 3 2 4 1 2 6 3 3v9l4 1 4-2v2h2l-1 5-1 1 2 2 1 4h-2v2h-2l-2 7-6-2-2 9-1 2 4-1 4 1 3-1v7h-2l-2 9-2 6 1 4v2h5l-1 5h2l2 3 1 7 7-2h3l2 2v-3h4v-2l8-4 11-2 2-4 9 2v2l5 1 3 6-4 2v2h2v2l-4 1-1 6-4 3 1 1 2-2 1 3-1 2-5 2-3-1 2 4-2 2 5 3 4 1v2l4 1 3-2 2 3-1 3h2l-1-7 3 1 1-3 4 5-2 5h2l-1 4 3 3 1-2 2 2 1 5 3-1 4 1v-2h2l1 5 8-3 2-4h2v2h2v8l4 4-6 2-3-6-2 2 2 4h-2l-2 2h-2l-4 2 5-1 2 6-1 2-3 5 3 1 1 4-1 5h-4l2 8 3 1 3 2 1-2h2l1-2v2h2l-1 3 2 6h7v2h2l2 4 4 1 7-2h3v5l7 1v3l-1 4h4l1-3 3 5v2h2v2h2v2l8-1 1 4v2l6 1v2l4 1 2 2 4-1 1 4-3 4v2l5-1v-3h7l3 4v2h2v-3l5 2v3l-4 1v3h2v-2l6 2-1 2 2 5 3 1v2l7 2 1 2 7 2-3 1 2 3 5-1 3 1 4-2 8-2h2l1-2 4 1 4 4 6 1-1 5-4 1 1 2 5 2h2l2 4-3 6-2 2 3 1 1 2 5-2 3 2 3 8 2-2 1 3 3 1-6 4h-18l-3-1-5 5 5 1 2-1 1-3 3 1h-2v2l7 1 3-1 2 3h13l1-1h5l4 1 1 2 9 1 3 3h-489v-517l5 1 2-4v-2h2v3l2-4z" fill="#D90B23"/>
<path transform="translate(473,209)" d="m0 0h2l2 2 4-1 4 2 2 2 4 1 4 4 7 2 7-1-1 7h3l1-2h3l8-1 5 2 5-1 2 1 1 3 3 1 2 2h3l2-4 1 2 7 2 1 5-4-1v3l4-1 4 1 3-1v2l4-1 3 3v2h2l1-4h3l1 5 4-1 3 1v4h4l1 4 6-1 5 7v2l4 2 1 3 8 1 4 4 4 1 3 3 2 4 3 2v3h3l5 5 5 6 3 1 3 5v3l6 1 2 2v4l7-1-2 4 1 3v-2h2l2 7h2l2 7 2 1 3 10 1 5 4-1 1 1v6l-1 2 4-1 1 7 4 2 7-1 4 2 4 1v3h2l2 6 4 4 1 5-2 5-2 3-5 3h2l2 2 3-2h3l-1-3 3-3 1 4v2 1l1 3-5 6-1 6h-3l1 3h-2l1 6-7-2 5 5v8l-5 2v-2h2l-2-7h-3v8l-1 4 1 12v48h-2l-1 12 3-3 7-1 1 6h-2l-1 5h-5l-1-3-2 3-1-3-2 6-5 17 5-1 2-1-3-5h2l1-2 1 3h3l3 11h-2l1 6-2 7-3-1-1 5-2 3-3 2h-1l-4 2-1 7-3 2 3 1-3 2-1 3h-3l-1 2 4 2-5-1h-2l-1 9-3 5-1 2-3 1v3l-4 1 1 4-4-1-1 2 3 1 1 3h-2v2l2 1h-4v5l-4-1v2l3 1-4 2h-3l-3 3-3-1 3 3-1 2-6 1-6 3-3 4-2 4-3 1-1 4 3 1v6l-1 2v5l-2 1-3-1 2 9 2 1v-6l2-2 3-9 2-7 2-3 2 1-2 11-1 7-2 3-1 5-1 8h-3l2 2v3h2v4h-2l-2 6h-2v2l-3-1v-7l-4-2 1-1v-8l-13-41-10-31-12-36-10-32-12-36-8-25-2-7v-6l15-7 27-13 23-11 14-6 3-1-4-17-8-20-5-10-3-5-2-1-14-1-51-1-7-1-3-4-6-14-5-13-10-23-15-36-7-15-6-16-10-21-3-5-7-1-5 5-13 24-11 20-6 11-14 27-13 25-13 22-5 1-3-1-20-2-19-3-76-11h-13l-2 3 1-5h10v-3l-2-1h2l1-2h9v-2l-2-2 1-2-1-3 1-3-2-2 3-3 5-1 3-4h-2v-2h2l1-5 3-3h4v-2h2l3-3 2-1 1-5 5-3 5 1v-2h-2l1-3h2l3-4h2l1-3 8-4h3l1-2 5-2 6-8 5-2 4 1 3-3h2l2-4 3-3h3v2 1l1-4 4-2 2 4 5-1 3-3h-5v-1h8 2l12-3 11-3 4-2v-4l-4 2-1 2-3-3v-2l8-2 6 1v-2l3-1 1-2 16-2 3-3h2v-3h2l1 2h2l1 2h3l1 3 6 2 2-5 4-5 6-1 2 1-1-3h4z" fill="#F7184E"/>
<path transform="translate(418,523)" d="m0 0h5l15 13 13 12 10 9 11 9 9 9 2 1v2l4 2 12 11 8 7 10 9 12 11 10 9 2 1v2l4 2 4 5h-5l-1 3-27 9-13 3-24 3h-28l-25-4-19-5-12-4-10-4v2l6 1 11 5 11 3 25 5 15 2h30l13-2h7l-3 3h-7l-8 4h-2v2h-2v2l4-1 5 2 1 3h-19l-3-2-2 2-10 1-6-1v-2l-9-3-8-3-5 2-2-2-3 1v-2h-6l-2-1 1 5 6 1v1h-8l-10-4-9-3-4-3-7-1-1-2 1-3 1-1-6-2v4h-6v-2l-6-1-3-1v-2h-4l16 8 11 5 21 7 25 5 7 1 18 1h13l19-1 23-4 17-5 20-7 9-3 8 7 4 3-1 3-20 9-20 7-24 6-28 3h-29l-23-3-26-6-20-7-19-8-19-11-14-10-11-9-3-2-5-1-1-3h-3v-3l-5-1-1-3-6-3-6-7-2-3-3-2-1 1h-2v3l-2-1-3 1h-2l-1 2-7 4-10 6-4 2-7 5-7 3-3 3-7 3-15 8-11 2-5-3-2-2v-7l4-8 14-19 13-18 16-23 7-10 3-2 4 7v2l2-1-2-4 1-4 5 2 11 2-3-2-16-3-3-3 3-1 1-3 2 4 16 4 15 4 8 1 1-6 7-18 2-7h3l10 16 10 14 7 9 5-1 11-7 14-8 16-10 23-14z" fill="#F7184E"/>
<path transform="translate(486,229)" d="m0 0 11 1 28 6 24 8 21 9 22 13 12 8 9 8 11 9 14 14 7 9 10 13 12 19 12 23 10 30 5 24 2 15v40l-3 24-6 25-7 19-10 22-9 15-10 14-8 10-9 10-7 8-13 12h-3l-5-14 1-4 12-11 7-8 9-11 8-11 8-13 12-25 7-19 5-21 3-20 1-12v-20l-4-29-5-21-6-18-12-25-12-19-11-14-9-10-5-5-11-10-14-11-16-10-21-11-23-9-24-6-11-2-4-5z" fill="#FEFEFD"/>
<path transform="translate(407,538)" d="m0 0 10 2 3-1 7 3v2h3v3l4-1 2 5 3 1v2l3-1 1 3h4v-2h-2l1-3 6 3v3l-4 2 3 3 7 2 1 3h5v4l2 1 1-2h2l1 4h-3v2l4 1v3h3l1 4-1 3h5l2 3h2v2h3l1 3 3 1 1 5 6 2h2v2h3l1 5 3-1 1 2h5v5l3 1-1 3-8 1-9 4-13 1-7 2h-12-3l-11 1-5-1-3 1v-2h-2l-1 2h-8l-1 2-3-3-5-2-3-1h-3v-2h-2v-3h-2v2h-2l1-5-7 1-2-2-7-2v-2l-4 2-5-6-1-3-6 1-1-3-4 1-4-4-1 2h-3v2l-5-1-1-2-5-3-9-8 2-1 3 1-2-6 3-8h-2v-3h-5l-2-1 2-4 6-3 7-4h3l3-3 6-1 2-3h3l1-3 6-1 1-2 7 1v-2h2v3h2v-3h5v-2h-7l1-3 5-1 4-1h3z" fill="#E5183D"/>
<path transform="translate(503,268)" d="m0 0 10 1 21 7 21 9 19 11 12 9 13 11 10 9 9 11 10 13 11 19 9 19 7 22 4 18 2 17v31l-2 18-4 17-8 24-11 23-7 11-10 14-14 15-3 4-3-1-4-12v-7l8-8 14-20 6-10 9-21 5-14 4-18 2-16v-33l-3-19-6-20-9-21-9-16-9-14-12-14-12-12-13-10-17-11-21-10-20-7-5-8-4-8z" fill="#FEFEFD"/>
<path transform="translate(262,562)" d="m0 0 16 4 5 2 12 17 8 10 11 13 7 7 8 7 15 12 20 13 20 9 12 5 21 6 24 4 18 1h13l19-1 23-4 17-5 20-7 9-3 8 7 4 3-1 3-20 9-20 7-24 6-28 3h-29l-23-3-26-6-20-7-19-8-19-11-14-10-11-9-10-9-13-13-11-14-10-13-7-11-4-8-2-5z" fill="#FEFEFD"/>
<path transform="translate(614,438)" d="m0 0 6 5 1 2 6-2 1-2 7-1-1 4 2 4-1 5h2v7h-2v2h2l2 3h3l-1 10-2-1 1-7h-2l-1 3 1 7-1 5v6l-1 2 4-2-1 11-4 1-3-2-2 4h-3l1 4v4l2 1-2 7 3-1v6l-1 1h-5l-5 10 3 3h-3l-5 7h-2v2l-6 1 1 5-3 6-2 7-5 3-4-3h-3l-1-4h4v-4l-2-1 1-4-5-1 1-2 1-4-3-1-2-3-3-3 1-6-5-2-5-15 1-5h2v-3l-4 1-4-7 1-2h2l-1-1v-5l-3-1v-2h-2l1-4-2-2v-6l5-1v-2h2v-2l2-1-1-6 4-2v-3l4 2 3 1 4-1 1-3h6l1-4h5l-2-1 1-4 6-2 3-2-1 5 5-1-1-2h2l1-5-2-5z" fill="#E5183D"/>
<path transform="translate(308,544)" d="m0 0 4 2 9 15 10 13 6 7v2l4 2 14 14 11 8 15 9 12 6 21 8 20 5 19 2h21l21-2 21-5 12-4h4v2l4 2 8 7-1 3-27 9-13 3-24 3h-28l-25-4-19-5-12-4-20-9-16-9-13-10-12-11-2-1v-2l-4-2-10-11-11-14-4-9 1-9 3-10z" fill="#FEFEFD"/>
<path transform="translate(381,636)" d="m0 0 9 3 14 5 18 5 16 3 13 2h28l30-4 29-9 5-2 1-2h6l10 9 14 12 5 4v2l4 2 10 9 7 6v3l1 2-4 1-4-5h-2l-1 2 3-1 1 6h-3l-1-3-2 2h-5l-1-2 4-3 2-2-1-4-2-1 1 4h-3l-2-3-2 2 1 2-8 4-6-2-3-4h-9v3 4h-8v-2l-10-1h-2l-1 4h-11l-2-1-2 4-28 1-9 1h-31l-17-2-25-5-4-2-9-1-2-2-9-2v-2l-10-2v-2l-9-3-10-4-5-4-11-7-5-5 5 2 11 7 16 9 23 9 16 5 22 5 23 3h29l28-3 31-8 25-10 8-4v-2l-9-7v-2l-7 1-12 5-18 6-21 5-13 2-19 1h-13l-18-1-24-4-21-6-15-6-19-9-4-4 7 2v2l9 2v2l5-1 1-3 6 1 2 1-1 2-2-1v4l7 1 2 1v2l11 3 10 4 1-1-1-6 9 2v2h2l1-2 3 2 5-2 7 3 6 2 3 2v2h12l4-1 2-2 3 2h17l2 1-2-3-8-1v-2h2v-2l5-3 7-2h6l1-1-14 1-5 1h-30l-32-5-15-4-9-3-8-4-4-1v-2l-4-1z" fill="#F7184E"/>
<path transform="translate(442,229)" d="m0 0h7l-1 5-6 11-6 3-34 8-19 7-23 11-20 13-13 11-10 8-7 8-11 12-4 6-3 2-16-2-1-4 4-5 11-14 14-15 8-7 11-10 16-11 13-8 16-8 13-6 18-6 24-6z" fill="#FEFEFD"/>
<path transform="translate(250,558)" d="m0 0 3 3 6 11 12 19 9 12-1 5-10 5-20 12-22 13-16 9-4 1h-8l-5-5 1-8 8-12 12-16 10-14 16-23 7-10z" fill="#FEFEFD"/>
<path transform="translate(490,387)" d="m0 0h18l14 4 1 3v17l-1 1-8-1-7-2h-10l-10 5-5 8v16l4 9 10 5h8l15-3h4v18l-3 4-7 2-8 1h-14l-13-4-11-9-4-7-3-9-1-11v-10l2-11 6-12 10-9 8-4z" fill="#F7184E"/>
<path transform="translate(370,388)" d="m0 0h54v19l-32 1v12l28 1v19l-26 1-2 1v31l-5 1h-13l-4-1-1-2v-82z" fill="#F7184E"/>
<path transform="translate(291,574)" d="m0 0 4 1 1 4h7l2-3 1 4 6 4v2l7 1 11 12 2 1v2l4 2 12 11 14 10 19 10 1 2 3 1v2l6 1 11 5 11 3 25 5 15 2h30l13-2h7l-3 3h-7l-8 4h-2v2h-2v2l4-1 5 2 1 3h-19l-3-2-2 2-10 1-6-1v-2l-9-3-8-3-5 2-2-2-3 1v-2h-6l-2-1 1 5 6 1v1h-8l-10-4-9-3-4-3-7-1-1-2 1-3 1-1-6-2v4h-6v-2l-6-1-3-1v-2l-9-2-17-12-13-11-13-12-9-10-13-17-2-3v-3z" fill="#E6183E"/>
<path transform="translate(434,388)" d="m0 0h21l1 1v63l-6 12-9 8-5 2-10 1-11-1-5-3-1-9v-10h17l6-3 1-9v-27z" fill="#F7184E"/>
<path transform="translate(420,268)" d="m0 0h9l-8 17-4 3-23 8-19 10-23 16-17 17-2 1-15-1-5-2 2-4 21-21 10-8 21-14 19-10 21-8z" fill="#FEFEFD"/>
<path transform="translate(305,532)" d="m0 0h3l10 16 15 21 3 6h-3l-8-7-10-15-5-8h-2l-4 14 1 8 6 10 7 8-1 2-5-1-4-4-3-2v-3l-1 3-8-1-2-4-6 1-5-6v-2l-12-3-9-2 2 5 6 11 7 11 9 11 8 10 9 10 11 11-3 2-2-4h-3v-3l-5-1-1-3-6-3-6-7-2-3-3-2-1 1h-2v3l-2-1-3 1h-2l-1 2-7 4-10 6-4 2-7 5-7 3-3 3-7 3-15 8-11 2-5-3-2-4 5 4h8l10-4 22-13 35-21 5-2-1-5-12-17-10-16 1-3-2-4 1-4 5 2 11 2-3-2-16-3-3-3 3-1 1-3 2 4 16 4 15 4 8 1 1-6 7-18z" fill="#F6184D"/>
<path transform="translate(526,298)" d="m0 0 5 1 1 6 1 5-1 9-1 2 5 2-1-4h5v-3l5-1-2 6 6-1 4 3 4 1 2 3 1-1v-2h3l1 4 4 2 1-3h2v3l4 1 4 6h-2v5l4 2 4 3v2h6v2h2l1-2v3h-2l1 4-5-1-1 2h-7l-9 2h-8-4l-3 1-1-3-7-1-3-6v-2h2l-1-2-4-1-3-1 1-4h2v-2h-2v-2l2-1-2-2v-3l-7-2v-2l-7-1v-3h2l-2-5 1-2h2l-2-5-5-5 1-6z" fill="#E5183D"/>
<path transform="translate(267,359)" d="m0 0 5 5 11 14 8 10 15 20 13 17 8 10 4 4 1 5-8 10-1-2 1-2h-2v-2h-2v-4h-2l-1-3-6-6-1-5-3-2v-4l-5-2v-2h-2l-2-5 1-3-5-1-1-2-6-5v-2h-2l1-5h-3l-1-5h-3l-4-6v-5l2-3-4-2-5-6v-4l-3-1v-3l2-1z" fill="#F6184D"/>
<path transform="translate(403,298)" d="m0 0h5l-1 4-3 5h-2l3 8-2 1-2 5-3 4-3 5-4 4-3 7-11 1 1-6-4 1 1-3v-1l-5 1-2-2-2 2-3-3v-2l5-1 2-4h2l1-5 5-1v-3h3l2 2v-3l-2-2 2-3-2-1 7-2v-2l3 1 1 3-5 2 1 6h2l1-4 4 1 1-4h2l-2-4-2-2 3-1v-2z" fill="#E5183D"/>
<path transform="translate(342,254)" d="m0 0 6 2 2 2-5 5-16 11-9 7-12 11-10 9-7 8-8 10h-2l-1-4 3-1-1-6v-1h-2v-2h2l1-5 3-3h4v-2h2l3-3 2-1 1-5 5-3 5 1v-2h-2l1-3h2l3-4h2l1-3 8-4h3l1-2 5-2 6-8z" fill="#F5184C"/>
<path transform="translate(259,570)" d="m0 0 1 2h2l1-2v4l1 2 2-1 4 6v4l1 3 5 1 11 13 7 9 9 10 11 11-3 2-2-4h-3v-3l-5-1-1-3-6-3-6-7-2-3-3-2-1 1h-2v3l-2-1-3 1h-2l-1 2-7 4-10 6-4 2-7 5-7 3-3 3-7 3-15 8-11 2-5-3-2-4 5 4h8l10-4 22-13 35-21 5-2-1-5-12-17-7-12z" fill="#F6184D"/>
<path transform="translate(305,532)" d="m0 0h3l10 16 15 21 3 6h-3l-8-7-10-15-5-8h-2l-1 4h-2l-3 10-3 2 1-10 3-12z" fill="#EA1841"/>
<path transform="translate(689,372)" d="m0 0h14l6 4 1 6-7 8-4 2-5-1-5-17z" fill="#FEFEFD"/>
<path transform="translate(381,636)" d="m0 0 9 3 14 5 18 5 16 3 13 2h28l17-1v2l-13 2h-30l-32-5-15-4-9-3-8-4-4-1v-2l-4-1z" fill="#F8194F"/>
<path transform="translate(474,417)" d="m0 0 4 3 1 3 1 14h-2v5h-4l-2-4h-5l1-3 2-2-1-4h2l-1-4h2l-1-5z" fill="#E5183D"/>
<path transform="translate(277,608)" d="m0 0 1 2-5 2-1 2-7 4-10 6-4 2-7 5-7 3-3 3-7 3-15 8-11 2-5-3-2-4 5 4h8l10-4 22-13 35-21z" fill="#F8194F"/>
<path transform="translate(707,457)" d="m0 0 2 2 1 9-1 14-1 5-4 1-1-3v-7h-2l1-9h2v-4l2-3z" fill="#F7184E"/>
<path transform="translate(334,649)" d="m0 0 5 2 11 7 16 9 23 9 15 5v1h-9l-2-2-9-2v-2l-10-2v-2l-9-3-10-4-5-4-11-7z" fill="#F8194F"/>
<path transform="translate(695,430)" d="m0 0 2 3 1 12v48h-2l-1 8-2 1 1-14 1-10z" fill="#F8194F"/>
<path transform="translate(315,551)" d="m0 0h5l8 11 5 7 3 6h-3l-8-7-10-15z" fill="#EE1846"/>
<path transform="translate(419,295)" d="m0 0h1l-1 7-11 22-3 1 1-5 2-5 1-4 4-7h2l1-4z" fill="#EA1842"/>
<path transform="translate(259,570)" d="m0 0 1 2h2l1-2v4l1 2 2-1 4 6v4l1 3 5 1 2 2-1 4-4-2-1-2-5-5-8-13z" fill="#EA1842"/>
<path transform="translate(557,645)" d="m0 0 4 2 8 7 2 4-4 1-5-4v-2h-2v-2h-5l2-4z" fill="#F5184C"/>
<path transform="translate(463,411)" d="m0 0h1l-1 15 1 9 1 6v8l-2 1-2-8v-25z" fill="#E5183D"/>
<path transform="translate(254,550)" d="m0 0 2 4 16 4 11 3 1 2-11-1-7-3-13-2-3-3 3-1z" fill="#F8194F"/>
<path transform="translate(240,558)" d="m0 0h2l1 5 3-1-2 5-3 3h-2l-2 1-2-1 2-9 3-1z" fill="#F5184C"/>
<path transform="translate(330,600)" d="m0 0h2v2l4 2 12 11 4 4h-4l-6-5-6-7h-3l-4-4z" fill="#F5184C"/>
<path transform="translate(624,577)" d="m0 0v3l-3 5-1 3-1-1-5 5h-2l1-4 7-8z" fill="#EA1841"/>
<path transform="translate(223,557)" d="m0 0h5l1 4-2 5 3 1h-2v2l-4 2v-2l-3-1 3-2v-6l-2-2z" fill="#D90B23"/>
<path transform="translate(429,250)" d="m0 0h7l-4 1-1 2-4-1-1 3h-7l-9 1 2-2z" fill="#E5183D"/>
<path transform="translate(334,649)" d="m0 0 5 2 11 7 6 4v2l-4-1-5-4-11-7z" fill="#F7184E"/>
<path transform="translate(538,303)" d="m0 0 2 2 3 1v3l2 1-3 4-5-5v-5z" fill="#E5183D"/>
<path transform="translate(403,234)" d="m0 0h7v2l-18 5-3-1 6-3 8-2z" fill="#F8194F"/>
<path transform="translate(395,227)" d="m0 0 1 2h2v3h-3l-1 2-1-1-2 2-5-2v-2l5-2 1 1z" fill="#F7184E"/>
<path transform="translate(291,305)" d="m0 0 1 3-9 11h-2l-1-4 3-1 1-3 4-1 2-4z" fill="#EA1842"/>
<path transform="translate(641,449)" d="m0 0 2 3v10l-3 2-1-6h2l-2-6z" fill="#E5183D"/>
<path transform="translate(453,420)" d="m0 0h1v18h-1l-3-12v-4z" fill="#E5183D"/>
<path transform="translate(259,570)" d="m0 0 1 2h2l1-2v4l1 2 2-1v8l-3-3-4-7z" fill="#EE1845"/>
<path transform="translate(328,565)" d="m0 0 3 1 5 9h-3l-6-7z" fill="#E7173E"/>
<path transform="translate(358,643)" d="m0 0 7 2v2l9 2 1 3-5-1-11-6z" fill="#F8194F"/>
<path transform="translate(434,450)" d="m0 0 1 2 3 1-1 3-7 1v-4h2v-2z" fill="#E5183D"/>
<path transform="translate(290,488)" d="m0 0 3 1-1 3 1 3h-6v-5z" fill="#F7184E"/>
<path transform="translate(630,430)" d="m0 0 3 1v5l-6 1-1-3h2v-2h2z" fill="#E5183D"/>
<path transform="translate(394,339)" d="m0 0h2v6l-3 5-4 1 2-4 2-3z" fill="#E91841"/>
<path transform="translate(570,321)" d="m0 0 4 1 5 6 2 1-1 2-5-3v-2l-4-1z" fill="#E5183D"/>
<path transform="translate(343,611)" d="m0 0 8 6v3l-5-2-4-5z" fill="#F8194F"/>
<path transform="translate(586,330)" d="m0 0 3 3-3 1 4 1-3 2h-2l-4-5z" fill="#E5183D"/>
<path transform="translate(403,326)" d="m0 0 1 2-4 10-3 1 1-4 4-8z" fill="#E91841"/>
<path transform="translate(275,739)" d="m0 0 5 3v5l-1-3h-2l-1 2-3-3z" fill="#E5183D"/>
<path transform="translate(437,263)" d="m0 0 1 4-3 5h-3l1-4 2-4z" fill="#E91841"/>
<path transform="translate(557,645)" d="m0 0 4 2 2 4h-8l2-4z" fill="#E7183F"/>
</svg>
